# xmcd CD database file
#
# Track frame offsets:
#	150
#	24407
#	45890
#	70662
#	100570
#	108877
#	130205
#	159442
#	176022
#	199262
#	215097
#
# Disc length: 3067 seconds
#
# Revision: 0
# Processed by: cddbd v1.4PL0 Copyright (c) Steve Scherf et al.
# Submitted via: CdAid (MTCDDB.DLL V2003.07.15)
#
DISCID=8a0bf90b
DTITLE=Johnny Guitar Watson - Love Jones
DYEAR=1980
DGENRE=R&B
TTITLE0=Booty Ooty
TTITLE1=Love Jones
TTITLE2=Going Up In Smoke
TTITLE3=Close Encounters
TTITLE4=Asante Sana
TTITLE5=Telephone Bill
TTITLE6=Lone Ranger
TTITLE7=Jet Plane
TTITLE8=Children Of The Universe
TTITLE9=Love Jones (Edit)
TTITLE10=Booty Ooty (Edit)
EXTD=reissue 2003 ID3G:  14 YEAR: 1980
EXTT0=
EXTT1=
EXTT2=
EXTT3=
EXTT4=
EXTT5=
EXTT6=
EXTT7=
EXTT8=
EXTT9=
EXTT10=
PLAYORDER=
